<mxfile host="app.diagrams.net" agent="Mozilla/5.0 (Macintosh; Intel Mac OS X 10_15_7) AppleWebKit/537.36 (KHTML, like Gecko) Chrome/132.0.0.0 Safari/537.36" version="26.0.5">
  <diagram name="Página-1" id="iQ79jOPinaNy7oLCh0Md">
    <mxGraphModel dx="2390" dy="1448" grid="1" gridSize="10" guides="1" tooltips="1" connect="1" arrows="1" fold="1" page="1" pageScale="1" pageWidth="827" pageHeight="1169" math="0" shadow="0">
      <root>
        <mxCell id="0" />
        <mxCell id="1" parent="0" />
        <mxCell id="_nt94sI4upRh2YXrKDY7-160" value="" style="group" vertex="1" connectable="0" parent="1">
          <mxGeometry x="140" y="770" width="1050" height="1370" as="geometry" />
        </mxCell>
        <mxCell id="_nt94sI4upRh2YXrKDY7-2" value="Usuarios" style="sketch=0;outlineConnect=0;fontColor=#232F3E;gradientColor=none;fillColor=#232F3D;strokeColor=none;dashed=0;verticalLabelPosition=bottom;verticalAlign=top;align=center;html=1;fontSize=12;fontStyle=0;aspect=fixed;pointerEvents=1;shape=mxgraph.aws4.users;" vertex="1" parent="_nt94sI4upRh2YXrKDY7-160">
          <mxGeometry x="360" width="78" height="78" as="geometry" />
        </mxCell>
        <mxCell id="_nt94sI4upRh2YXrKDY7-12" value="Region" style="points=[[0,0],[0.25,0],[0.5,0],[0.75,0],[1,0],[1,0.25],[1,0.5],[1,0.75],[1,1],[0.75,1],[0.5,1],[0.25,1],[0,1],[0,0.75],[0,0.5],[0,0.25]];outlineConnect=0;gradientColor=none;html=1;whiteSpace=wrap;fontSize=12;fontStyle=0;container=0;pointerEvents=0;collapsible=0;recursiveResize=0;shape=mxgraph.aws4.group;grIcon=mxgraph.aws4.group_region;strokeColor=#00A4A6;fillColor=none;verticalAlign=top;align=left;spacingLeft=30;fontColor=#147EBA;dashed=1;" vertex="1" parent="_nt94sI4upRh2YXrKDY7-160">
          <mxGeometry y="240" width="870" height="940" as="geometry" />
        </mxCell>
        <mxCell id="_nt94sI4upRh2YXrKDY7-74" style="edgeStyle=orthogonalEdgeStyle;rounded=0;orthogonalLoop=1;jettySize=auto;html=1;" edge="1" parent="_nt94sI4upRh2YXrKDY7-160" source="_nt94sI4upRh2YXrKDY7-16" target="_nt94sI4upRh2YXrKDY7-14">
          <mxGeometry relative="1" as="geometry" />
        </mxCell>
        <mxCell id="_nt94sI4upRh2YXrKDY7-75" style="edgeStyle=orthogonalEdgeStyle;rounded=0;orthogonalLoop=1;jettySize=auto;html=1;sketch=1;curveFitting=1;jiggle=2;" edge="1" parent="_nt94sI4upRh2YXrKDY7-160" source="_nt94sI4upRh2YXrKDY7-16" target="_nt94sI4upRh2YXrKDY7-15">
          <mxGeometry relative="1" as="geometry" />
        </mxCell>
        <mxCell id="_nt94sI4upRh2YXrKDY7-16" value="" style="sketch=0;points=[[0,0,0],[0.25,0,0],[0.5,0,0],[0.75,0,0],[1,0,0],[0,1,0],[0.25,1,0],[0.5,1,0],[0.75,1,0],[1,1,0],[0,0.25,0],[0,0.5,0],[0,0.75,0],[1,0.25,0],[1,0.5,0],[1,0.75,0]];outlineConnect=0;fontColor=#232F3E;fillColor=#8C4FFF;strokeColor=#ffffff;dashed=0;verticalLabelPosition=bottom;verticalAlign=top;align=center;html=1;fontSize=12;fontStyle=0;aspect=fixed;shape=mxgraph.aws4.resourceIcon;resIcon=mxgraph.aws4.route_53;" vertex="1" parent="_nt94sI4upRh2YXrKDY7-160">
          <mxGeometry x="360" y="130" width="78" height="78" as="geometry" />
        </mxCell>
        <mxCell id="_nt94sI4upRh2YXrKDY7-76" style="edgeStyle=orthogonalEdgeStyle;rounded=0;orthogonalLoop=1;jettySize=auto;html=1;entryX=0.5;entryY=0;entryDx=0;entryDy=0;entryPerimeter=0;sketch=1;curveFitting=1;jiggle=2;" edge="1" parent="_nt94sI4upRh2YXrKDY7-160" source="_nt94sI4upRh2YXrKDY7-2" target="_nt94sI4upRh2YXrKDY7-16">
          <mxGeometry relative="1" as="geometry" />
        </mxCell>
        <mxCell id="_nt94sI4upRh2YXrKDY7-78" style="edgeStyle=orthogonalEdgeStyle;rounded=0;orthogonalLoop=1;jettySize=auto;html=1;sketch=1;curveFitting=1;jiggle=2;" edge="1" parent="_nt94sI4upRh2YXrKDY7-160" source="_nt94sI4upRh2YXrKDY7-14" target="_nt94sI4upRh2YXrKDY7-16">
          <mxGeometry relative="1" as="geometry" />
        </mxCell>
        <mxCell id="_nt94sI4upRh2YXrKDY7-150" value="" style="group" vertex="1" connectable="0" parent="_nt94sI4upRh2YXrKDY7-160">
          <mxGeometry x="890" y="600" width="90" height="296" as="geometry" />
        </mxCell>
        <mxCell id="_nt94sI4upRh2YXrKDY7-81" value="" style="rounded=0;whiteSpace=wrap;html=1;dashed=1;strokeColor=#FF66B3;fillColor=none;align=right;verticalAlign=bottom;labelPosition=left;verticalLabelPosition=middle;sketch=1;curveFitting=1;jiggle=2;" vertex="1" parent="_nt94sI4upRh2YXrKDY7-150">
          <mxGeometry width="90" height="296" as="geometry" />
        </mxCell>
        <mxCell id="_nt94sI4upRh2YXrKDY7-99" value="bucket&#xa;processamento&#xa;videos" style="sketch=0;points=[[0,0,0],[0.25,0,0],[0.5,0,0],[0.75,0,0],[1,0,0],[0,1,0],[0.25,1,0],[0.5,1,0],[0.75,1,0],[1,1,0],[0,0.25,0],[0,0.5,0],[0,0.75,0],[1,0.25,0],[1,0.5,0],[1,0.75,0]];outlineConnect=0;fontColor=#232F3E;fillColor=#7AA116;strokeColor=#ffffff;dashed=0;verticalLabelPosition=bottom;verticalAlign=top;align=center;fontSize=8;fontStyle=0;aspect=fixed;shape=mxgraph.aws4.resourceIcon;resIcon=mxgraph.aws4.s3;" vertex="1" parent="_nt94sI4upRh2YXrKDY7-150">
          <mxGeometry x="31.190000000000055" y="208.3900000000001" width="27.61" height="27.61" as="geometry" />
        </mxCell>
        <mxCell id="_nt94sI4upRh2YXrKDY7-84" value="conversao-video-para-&#xa;imagem-realizada" style="sketch=0;points=[[0,0,0],[0.25,0,0],[0.5,0,0],[0.75,0,0],[1,0,0],[0,1,0],[0.25,1,0],[0.5,1,0],[0.75,1,0],[1,1,0],[0,0.25,0],[0,0.5,0],[0,0.75,0],[1,0.25,0],[1,0.5,0],[1,0.75,0]];outlineConnect=0;fontColor=default;fillColor=#E7157B;strokeColor=#ffffff;dashed=0;verticalLabelPosition=bottom;verticalAlign=top;align=center;fontSize=8;fontStyle=0;aspect=fixed;shape=mxgraph.aws4.resourceIcon;resIcon=mxgraph.aws4.sqs;labelBackgroundColor=none;" vertex="1" parent="_nt94sI4upRh2YXrKDY7-150">
          <mxGeometry x="32.24714285714299" y="24" width="25.5" height="25.5" as="geometry" />
        </mxCell>
        <mxCell id="_nt94sI4upRh2YXrKDY7-87" value="erro-conversao-video-&#xa;para-imagem" style="sketch=0;points=[[0,0,0],[0.25,0,0],[0.5,0,0],[0.75,0,0],[1,0,0],[0,1,0],[0.25,1,0],[0.5,1,0],[0.75,1,0],[1,1,0],[0,0.25,0],[0,0.5,0],[0,0.75,0],[1,0.25,0],[1,0.5,0],[1,0.75,0]];outlineConnect=0;fontColor=default;fillColor=#E7157B;strokeColor=#ffffff;dashed=0;verticalLabelPosition=bottom;verticalAlign=top;align=center;fontSize=8;fontStyle=0;aspect=fixed;shape=mxgraph.aws4.resourceIcon;resIcon=mxgraph.aws4.sqs;labelBackgroundColor=none;horizontal=1;" vertex="1" parent="_nt94sI4upRh2YXrKDY7-150">
          <mxGeometry x="32.24714285714299" y="88.25333333333333" width="25.5" height="25.5" as="geometry" />
        </mxCell>
        <mxCell id="_nt94sI4upRh2YXrKDY7-118" value="converter-video-&#xa;para-imagem" style="sketch=0;points=[[0,0,0],[0.25,0,0],[0.5,0,0],[0.75,0,0],[1,0,0],[0,1,0],[0.25,1,0],[0.5,1,0],[0.75,1,0],[1,1,0],[0,0.25,0],[0,0.5,0],[0,0.75,0],[1,0.25,0],[1,0.5,0],[1,0.75,0]];outlineConnect=0;fontColor=default;fillColor=#E7157B;strokeColor=#ffffff;dashed=0;verticalLabelPosition=bottom;verticalAlign=top;align=center;fontSize=8;fontStyle=0;aspect=fixed;shape=mxgraph.aws4.resourceIcon;resIcon=mxgraph.aws4.sqs;labelBackgroundColor=none;horizontal=1;" vertex="1" parent="_nt94sI4upRh2YXrKDY7-150">
          <mxGeometry x="32.24714285714299" y="146.00333333333333" width="25.5" height="25.5" as="geometry" />
        </mxCell>
        <mxCell id="_nt94sI4upRh2YXrKDY7-159" value="&lt;ol&gt;&lt;li&gt;Gerenciador API&lt;/li&gt;&lt;ol&gt;&lt;li&gt;Ao receber a requisicao o video é armazenado no bucket para ser processado posteriormente&lt;/li&gt;&lt;li style=&quot;&quot;&gt;Publica na fila converter-video-para-imagem uma mensagem com o id de processamento e o diretorio do bucket&lt;/li&gt;&lt;li style=&quot;&quot;&gt;Consome mensagem da fila conversao-video-para-imagem-realizada remove o video armazenado e salva no dynamo o status do processamento e a localizacao do zip de frames&lt;/li&gt;&lt;li style=&quot;&quot;&gt;Consome mensagem da fila erro-conversao-video-para-imagem e publica mensagem de erro no dynamo.&lt;/li&gt;&lt;/ol&gt;&lt;li&gt;Conversor Worker&lt;/li&gt;&lt;ol&gt;&lt;li&gt;Ler video armazenado no bucket pra converter em frames.&lt;/li&gt;&lt;li&gt;Consome mensagem da fila converter-video-para-imagem e realiza o processamento de conversao&lt;/li&gt;&lt;li&gt;Armazena zip de frames no bucket&amp;nbsp;&lt;/li&gt;&lt;li&gt;publica mensagem na fila conversao-imagem-realizada com o path do arquivo zip processado&lt;/li&gt;&lt;li&gt;publica mensagem na fila erro-conversao-video-para-imagem com a mensagem de erro em caso de falha no processamento.&lt;/li&gt;&lt;/ol&gt;&lt;/ol&gt;" style="text;html=1;align=left;verticalAlign=middle;resizable=0;points=[];autosize=1;strokeColor=none;fillColor=none;" vertex="1" parent="_nt94sI4upRh2YXrKDY7-160">
          <mxGeometry y="1170" width="1050" height="200" as="geometry" />
        </mxCell>
        <mxCell id="_nt94sI4upRh2YXrKDY7-13" value="VPC" style="points=[[0,0],[0.25,0],[0.5,0],[0.75,0],[1,0],[1,0.25],[1,0.5],[1,0.75],[1,1],[0.75,1],[0.5,1],[0.25,1],[0,1],[0,0.75],[0,0.5],[0,0.25]];outlineConnect=0;gradientColor=none;html=1;whiteSpace=wrap;fontSize=12;fontStyle=0;container=1;pointerEvents=0;collapsible=0;recursiveResize=0;shape=mxgraph.aws4.group;grIcon=mxgraph.aws4.group_vpc2;strokeColor=#8C4FFF;fillColor=none;verticalAlign=top;align=left;spacingLeft=30;fontColor=#AAB7B8;dashed=0;" vertex="1" parent="_nt94sI4upRh2YXrKDY7-160">
          <mxGeometry x="20" y="290" width="830" height="870" as="geometry" />
        </mxCell>
        <mxCell id="_nt94sI4upRh2YXrKDY7-79" value="Subnet" style="outlineConnect=0;html=1;whiteSpace=wrap;fontSize=12;fontStyle=0;shape=mxgraph.aws4.group;grIcon=mxgraph.aws4.group_subnet;strokeColor=default;fillColor=#dae8fc;verticalAlign=top;align=left;spacingLeft=30;dashed=1;fillStyle=auto;opacity=30;" vertex="1" parent="_nt94sI4upRh2YXrKDY7-13">
          <mxGeometry x="50" y="140" width="710" height="590" as="geometry" />
        </mxCell>
        <mxCell id="_nt94sI4upRh2YXrKDY7-71" style="edgeStyle=orthogonalEdgeStyle;rounded=0;orthogonalLoop=1;jettySize=auto;html=1;entryX=0.5;entryY=0;entryDx=0;entryDy=0;curved=1;sketch=1;curveFitting=1;jiggle=2;" edge="1" parent="_nt94sI4upRh2YXrKDY7-13" source="_nt94sI4upRh2YXrKDY7-15" target="_nt94sI4upRh2YXrKDY7-41">
          <mxGeometry relative="1" as="geometry" />
        </mxCell>
        <mxCell id="_nt94sI4upRh2YXrKDY7-73" value="Kubernet Ingress" style="edgeLabel;html=1;align=center;verticalAlign=middle;resizable=0;points=[];" vertex="1" connectable="0" parent="_nt94sI4upRh2YXrKDY7-71">
          <mxGeometry x="0.0537" y="3" relative="1" as="geometry">
            <mxPoint as="offset" />
          </mxGeometry>
        </mxCell>
        <mxCell id="_nt94sI4upRh2YXrKDY7-15" value="Gerenciador Balancer" style="sketch=0;outlineConnect=0;fontColor=#232F3E;gradientColor=none;fillColor=#8C4FFF;strokeColor=none;dashed=0;verticalLabelPosition=bottom;verticalAlign=top;align=center;html=1;fontSize=12;fontStyle=0;aspect=fixed;pointerEvents=1;shape=mxgraph.aws4.network_load_balancer;" vertex="1" parent="_nt94sI4upRh2YXrKDY7-13">
          <mxGeometry x="400.5" y="31" width="78" height="78" as="geometry" />
        </mxCell>
        <mxCell id="_nt94sI4upRh2YXrKDY7-22" value="&amp;nbsp; &amp;nbsp; &amp;nbsp; &amp;nbsp; &amp;nbsp; &amp;nbsp; &amp;nbsp; &amp;nbsp; EKS Cluster" style="points=[[0,0],[0.25,0],[0.5,0],[0.75,0],[1,0],[1,0.25],[1,0.5],[1,0.75],[1,1],[0.75,1],[0.5,1],[0.25,1],[0,1],[0,0.75],[0,0.5],[0,0.25]];outlineConnect=0;gradientColor=none;html=1;whiteSpace=wrap;fontSize=12;fontStyle=0;container=1;pointerEvents=0;collapsible=0;recursiveResize=0;shape=mxgraph.aws4.group;grIcon=mxgraph.aws4.group_ec2_instance_contents;strokeColor=#D86613;fillColor=none;verticalAlign=top;align=left;spacingLeft=30;fontColor=#D86613;dashed=0;sketch=1;curveFitting=1;jiggle=2;" vertex="1" parent="_nt94sI4upRh2YXrKDY7-13">
          <mxGeometry x="79" y="172" width="651" height="552" as="geometry" />
        </mxCell>
        <mxCell id="_nt94sI4upRh2YXrKDY7-21" value="" style="sketch=0;points=[[0,0,0],[0.25,0,0],[0.5,0,0],[0.75,0,0],[1,0,0],[0,1,0],[0.25,1,0],[0.5,1,0],[0.75,1,0],[1,1,0],[0,0.25,0],[0,0.5,0],[0,0.75,0],[1,0.25,0],[1,0.5,0],[1,0.75,0]];outlineConnect=0;fontColor=#232F3E;fillColor=#ED7100;strokeColor=#ffffff;dashed=0;verticalLabelPosition=bottom;verticalAlign=top;align=center;html=1;fontSize=12;fontStyle=0;aspect=fixed;shape=mxgraph.aws4.resourceIcon;resIcon=mxgraph.aws4.eks;" vertex="1" parent="_nt94sI4upRh2YXrKDY7-22">
          <mxGeometry width="78" height="78" as="geometry" />
        </mxCell>
        <mxCell id="_nt94sI4upRh2YXrKDY7-23" value="Deployment Identity" style="points=[[0,0],[0.25,0],[0.5,0],[0.75,0],[1,0],[1,0.25],[1,0.5],[1,0.75],[1,1],[0.75,1],[0.5,1],[0.25,1],[0,1],[0,0.75],[0,0.5],[0,0.25]];outlineConnect=0;gradientColor=none;html=1;whiteSpace=wrap;fontSize=12;fontStyle=0;container=1;pointerEvents=0;collapsible=0;recursiveResize=0;shape=mxgraph.aws4.group;grIcon=mxgraph.aws4.group_ec2_instance_contents;strokeColor=#D86613;fillColor=none;verticalAlign=top;align=left;spacingLeft=30;fontColor=#D86613;dashed=1;sketch=1;curveFitting=1;jiggle=2;" vertex="1" parent="_nt94sI4upRh2YXrKDY7-22">
          <mxGeometry x="111" y="107.5" width="130" height="402.5" as="geometry" />
        </mxCell>
        <mxCell id="_nt94sI4upRh2YXrKDY7-27" value="AutoScalling" style="aspect=fixed;sketch=0;html=1;dashed=0;whitespace=wrap;verticalLabelPosition=bottom;verticalAlign=top;fillColor=#2875E2;strokeColor=#ffffff;points=[[0.005,0.63,0],[0.1,0.2,0],[0.9,0.2,0],[0.5,0,0],[0.995,0.63,0],[0.72,0.99,0],[0.5,1,0],[0.28,0.99,0]];shape=mxgraph.kubernetes.icon2;prIcon=hpa;flipH=1;" vertex="1" parent="_nt94sI4upRh2YXrKDY7-23">
          <mxGeometry x="40" y="230.5" width="50" height="48" as="geometry" />
        </mxCell>
        <mxCell id="_nt94sI4upRh2YXrKDY7-28" value="Identity Api" style="aspect=fixed;sketch=0;html=1;dashed=0;whitespace=wrap;verticalLabelPosition=bottom;verticalAlign=top;fillColor=#2875E2;strokeColor=#ffffff;points=[[0.005,0.63,0],[0.1,0.2,0],[0.9,0.2,0],[0.5,0,0],[0.995,0.63,0],[0.72,0.99,0],[0.5,1,0],[0.28,0.99,0]];shape=mxgraph.kubernetes.icon2;kubernetesLabel=1;prIcon=pod;flipH=1;" vertex="1" parent="_nt94sI4upRh2YXrKDY7-23">
          <mxGeometry x="40" y="310.5" width="50" height="48" as="geometry" />
        </mxCell>
        <mxCell id="_nt94sI4upRh2YXrKDY7-29" value="Identity Service&lt;div&gt;Load Balancer&lt;/div&gt;" style="aspect=fixed;sketch=0;html=1;dashed=0;whitespace=wrap;verticalLabelPosition=bottom;verticalAlign=top;fillColor=#2875E2;strokeColor=#ffffff;points=[[0.005,0.63,0],[0.1,0.2,0],[0.9,0.2,0],[0.5,0,0],[0.995,0.63,0],[0.72,0.99,0],[0.5,1,0],[0.28,0.99,0]];shape=mxgraph.kubernetes.icon2;prIcon=svc;flipH=1;" vertex="1" parent="_nt94sI4upRh2YXrKDY7-23">
          <mxGeometry x="40" y="53" width="50" height="48" as="geometry" />
        </mxCell>
        <mxCell id="_nt94sI4upRh2YXrKDY7-38" value="ConfigMap" style="aspect=fixed;sketch=0;html=1;dashed=0;whitespace=wrap;verticalLabelPosition=bottom;verticalAlign=top;fillColor=#2875E2;strokeColor=#ffffff;points=[[0.005,0.63,0],[0.1,0.2,0],[0.9,0.2,0],[0.5,0,0],[0.995,0.63,0],[0.72,0.99,0],[0.5,1,0],[0.28,0.99,0]];shape=mxgraph.kubernetes.icon2;kubernetesLabel=1;prIcon=c_m;flipH=1;" vertex="1" parent="_nt94sI4upRh2YXrKDY7-23">
          <mxGeometry x="40" y="150.5" width="50" height="48" as="geometry" />
        </mxCell>
        <mxCell id="_nt94sI4upRh2YXrKDY7-41" value="Deployment Gerenciador" style="points=[[0,0],[0.25,0],[0.5,0],[0.75,0],[1,0],[1,0.25],[1,0.5],[1,0.75],[1,1],[0.75,1],[0.5,1],[0.25,1],[0,1],[0,0.75],[0,0.5],[0,0.25]];outlineConnect=0;gradientColor=none;html=1;whiteSpace=wrap;fontSize=12;fontStyle=0;container=1;pointerEvents=0;collapsible=0;recursiveResize=0;shape=mxgraph.aws4.group;grIcon=mxgraph.aws4.group_ec2_instance_contents;strokeColor=#D86613;fillColor=none;verticalAlign=top;align=left;spacingLeft=30;fontColor=#D86613;dashed=1;sketch=1;curveFitting=1;jiggle=2;" vertex="1" parent="_nt94sI4upRh2YXrKDY7-22">
          <mxGeometry x="271" y="108" width="130" height="402.5" as="geometry" />
        </mxCell>
        <mxCell id="_nt94sI4upRh2YXrKDY7-42" value="AutoScalling" style="aspect=fixed;sketch=0;html=1;dashed=0;whitespace=wrap;verticalLabelPosition=bottom;verticalAlign=top;fillColor=#2875E2;strokeColor=#ffffff;points=[[0.005,0.63,0],[0.1,0.2,0],[0.9,0.2,0],[0.5,0,0],[0.995,0.63,0],[0.72,0.99,0],[0.5,1,0],[0.28,0.99,0]];shape=mxgraph.kubernetes.icon2;prIcon=hpa" vertex="1" parent="_nt94sI4upRh2YXrKDY7-41">
          <mxGeometry x="40" y="230" width="50" height="48" as="geometry" />
        </mxCell>
        <mxCell id="_nt94sI4upRh2YXrKDY7-43" value="Gerenciador Api" style="aspect=fixed;sketch=0;html=1;dashed=0;whitespace=wrap;verticalLabelPosition=bottom;verticalAlign=top;fillColor=#2875E2;strokeColor=#ffffff;points=[[0.005,0.63,0],[0.1,0.2,0],[0.9,0.2,0],[0.5,0,0],[0.995,0.63,0],[0.72,0.99,0],[0.5,1,0],[0.28,0.99,0]];shape=mxgraph.kubernetes.icon2;kubernetesLabel=1;prIcon=pod" vertex="1" parent="_nt94sI4upRh2YXrKDY7-41">
          <mxGeometry x="40" y="310" width="50" height="48" as="geometry" />
        </mxCell>
        <mxCell id="_nt94sI4upRh2YXrKDY7-44" value="Gerenciador Service&lt;div&gt;Load Balancer&lt;/div&gt;" style="aspect=fixed;sketch=0;html=1;dashed=0;whitespace=wrap;verticalLabelPosition=bottom;verticalAlign=top;fillColor=#2875E2;strokeColor=#ffffff;points=[[0.005,0.63,0],[0.1,0.2,0],[0.9,0.2,0],[0.5,0,0],[0.995,0.63,0],[0.72,0.99,0],[0.5,1,0],[0.28,0.99,0]];shape=mxgraph.kubernetes.icon2;prIcon=svc" vertex="1" parent="_nt94sI4upRh2YXrKDY7-41">
          <mxGeometry x="40" y="53" width="50" height="48" as="geometry" />
        </mxCell>
        <mxCell id="_nt94sI4upRh2YXrKDY7-45" value="ConfigMap" style="aspect=fixed;sketch=0;html=1;dashed=0;whitespace=wrap;verticalLabelPosition=bottom;verticalAlign=top;fillColor=#2875E2;strokeColor=#ffffff;points=[[0.005,0.63,0],[0.1,0.2,0],[0.9,0.2,0],[0.5,0,0],[0.995,0.63,0],[0.72,0.99,0],[0.5,1,0],[0.28,0.99,0]];shape=mxgraph.kubernetes.icon2;kubernetesLabel=1;prIcon=c_m" vertex="1" parent="_nt94sI4upRh2YXrKDY7-41">
          <mxGeometry x="40" y="150" width="50" height="48" as="geometry" />
        </mxCell>
        <mxCell id="_nt94sI4upRh2YXrKDY7-46" value="Deployment Conversor&amp;nbsp;" style="points=[[0,0],[0.25,0],[0.5,0],[0.75,0],[1,0],[1,0.25],[1,0.5],[1,0.75],[1,1],[0.75,1],[0.5,1],[0.25,1],[0,1],[0,0.75],[0,0.5],[0,0.25]];outlineConnect=0;gradientColor=none;html=1;whiteSpace=wrap;fontSize=12;fontStyle=0;container=1;pointerEvents=0;collapsible=0;recursiveResize=0;shape=mxgraph.aws4.group;grIcon=mxgraph.aws4.group_ec2_instance_contents;strokeColor=#D86613;fillColor=none;verticalAlign=top;align=left;spacingLeft=30;fontColor=#D86613;dashed=1;sketch=1;curveFitting=1;jiggle=2;" vertex="1" parent="_nt94sI4upRh2YXrKDY7-22">
          <mxGeometry x="431" y="107.5" width="130" height="402.5" as="geometry" />
        </mxCell>
        <mxCell id="_nt94sI4upRh2YXrKDY7-48" value="Conversor Worker" style="aspect=fixed;sketch=0;html=1;dashed=0;whitespace=wrap;verticalLabelPosition=bottom;verticalAlign=top;fillColor=#2875E2;strokeColor=#ffffff;points=[[0.005,0.63,0],[0.1,0.2,0],[0.9,0.2,0],[0.5,0,0],[0.995,0.63,0],[0.72,0.99,0],[0.5,1,0],[0.28,0.99,0]];shape=mxgraph.kubernetes.icon2;kubernetesLabel=1;prIcon=pod" vertex="1" parent="_nt94sI4upRh2YXrKDY7-46">
          <mxGeometry x="40" y="310.5" width="50" height="48" as="geometry" />
        </mxCell>
        <mxCell id="_nt94sI4upRh2YXrKDY7-50" value="ConfigMap" style="aspect=fixed;sketch=0;html=1;dashed=0;whitespace=wrap;verticalLabelPosition=bottom;verticalAlign=top;fillColor=#2875E2;strokeColor=#ffffff;points=[[0.005,0.63,0],[0.1,0.2,0],[0.9,0.2,0],[0.5,0,0],[0.995,0.63,0],[0.72,0.99,0],[0.5,1,0],[0.28,0.99,0]];shape=mxgraph.kubernetes.icon2;kubernetesLabel=1;prIcon=c_m" vertex="1" parent="_nt94sI4upRh2YXrKDY7-46">
          <mxGeometry x="40" y="150.5" width="50" height="48" as="geometry" />
        </mxCell>
        <mxCell id="_nt94sI4upRh2YXrKDY7-67" style="edgeStyle=orthogonalEdgeStyle;rounded=0;orthogonalLoop=1;jettySize=auto;html=1;entryX=0.5;entryY=0;entryDx=0;entryDy=0;curved=1;sketch=1;curveFitting=1;jiggle=2;" edge="1" parent="_nt94sI4upRh2YXrKDY7-13" source="_nt94sI4upRh2YXrKDY7-14" target="_nt94sI4upRh2YXrKDY7-23">
          <mxGeometry relative="1" as="geometry" />
        </mxCell>
        <mxCell id="_nt94sI4upRh2YXrKDY7-72" value="Kubernet Ingress" style="edgeLabel;html=1;align=center;verticalAlign=middle;resizable=0;points=[];" vertex="1" connectable="0" parent="_nt94sI4upRh2YXrKDY7-67">
          <mxGeometry x="0.0272" y="3" relative="1" as="geometry">
            <mxPoint as="offset" />
          </mxGeometry>
        </mxCell>
        <mxCell id="_nt94sI4upRh2YXrKDY7-14" value="Identity Balancer" style="sketch=0;outlineConnect=0;fontColor=#232F3E;gradientColor=none;fillColor=#8C4FFF;strokeColor=none;dashed=0;verticalLabelPosition=bottom;verticalAlign=top;align=center;html=1;fontSize=12;fontStyle=0;aspect=fixed;pointerEvents=1;shape=mxgraph.aws4.network_load_balancer;" vertex="1" parent="_nt94sI4upRh2YXrKDY7-13">
          <mxGeometry x="284" y="31" width="78" height="78" as="geometry" />
        </mxCell>
        <mxCell id="_nt94sI4upRh2YXrKDY7-140" value="&lt;div&gt;&lt;span style=&quot;color: rgb(12, 12, 14); font-family: -apple-system, &amp;quot;system-ui&amp;quot;, &amp;quot;Segoe UI&amp;quot;, Helvetica, Arial, sans-serif, &amp;quot;Apple Color Emoji&amp;quot;, &amp;quot;Segoe UI Emoji&amp;quot;, &amp;quot;Segoe UI Symbol&amp;quot;; text-align: left; text-wrap-mode: wrap; background-color: rgb(255, 255, 255);&quot;&gt;RDS&lt;/span&gt;&lt;/div&gt;&lt;span style=&quot;color: rgb(12, 12, 14); font-family: -apple-system, &amp;quot;system-ui&amp;quot;, &amp;quot;Segoe UI&amp;quot;, Helvetica, Arial, sans-serif, &amp;quot;Apple Color Emoji&amp;quot;, &amp;quot;Segoe UI Emoji&amp;quot;, &amp;quot;Segoe UI Symbol&amp;quot;; text-align: left; text-wrap-mode: wrap; background-color: rgb(255, 255, 255);&quot;&gt;ProcessamentoVideoIdentity&lt;/span&gt;" style="outlineConnect=0;dashed=0;verticalLabelPosition=bottom;verticalAlign=top;align=center;html=1;shape=mxgraph.aws3.rds;fillColor=#2E73B8;gradientColor=none;fontSize=8;" vertex="1" parent="_nt94sI4upRh2YXrKDY7-13">
          <mxGeometry x="150" y="754" width="50" height="56" as="geometry" />
        </mxCell>
        <mxCell id="_nt94sI4upRh2YXrKDY7-145" value="Dynamo&amp;nbsp;&lt;div&gt;ProcessamentoVideos&lt;/div&gt;" style="outlineConnect=0;dashed=0;verticalLabelPosition=bottom;verticalAlign=top;align=center;html=1;shape=mxgraph.aws3.dynamo_db;fillColor=#2E73B8;gradientColor=none;fontSize=8;" vertex="1" parent="_nt94sI4upRh2YXrKDY7-13">
          <mxGeometry x="284" y="750" width="50" height="56" as="geometry" />
        </mxCell>
        <mxCell id="_nt94sI4upRh2YXrKDY7-146" style="edgeStyle=orthogonalEdgeStyle;rounded=0;orthogonalLoop=1;jettySize=auto;html=1;entryX=0.5;entryY=0;entryDx=0;entryDy=0;entryPerimeter=0;sketch=1;curveFitting=1;jiggle=2;curved=1;exitX=0.5;exitY=1;exitDx=0;exitDy=0;" edge="1" parent="_nt94sI4upRh2YXrKDY7-13" source="_nt94sI4upRh2YXrKDY7-41" target="_nt94sI4upRh2YXrKDY7-145">
          <mxGeometry relative="1" as="geometry" />
        </mxCell>
        <mxCell id="_nt94sI4upRh2YXrKDY7-147" style="edgeStyle=orthogonalEdgeStyle;rounded=0;orthogonalLoop=1;jettySize=auto;html=1;sketch=1;curveFitting=1;jiggle=2;curved=1;" edge="1" parent="_nt94sI4upRh2YXrKDY7-13" source="_nt94sI4upRh2YXrKDY7-23" target="_nt94sI4upRh2YXrKDY7-140">
          <mxGeometry relative="1" as="geometry" />
        </mxCell>
        <mxCell id="_nt94sI4upRh2YXrKDY7-130" value="" style="group;glass=0;sketch=1;curveFitting=1;jiggle=2;" vertex="1" connectable="0" parent="_nt94sI4upRh2YXrKDY7-13">
          <mxGeometry x="390" y="750" width="370" height="93" as="geometry" />
        </mxCell>
        <mxCell id="_nt94sI4upRh2YXrKDY7-122" value="" style="rounded=0;whiteSpace=wrap;html=1;dashed=1;strokeColor=#FF66B3;fillColor=none;align=right;verticalAlign=bottom;labelPosition=left;verticalLabelPosition=middle;sketch=1;curveFitting=1;jiggle=2;" vertex="1" parent="_nt94sI4upRh2YXrKDY7-130">
          <mxGeometry width="370" height="93" as="geometry" />
        </mxCell>
        <mxCell id="_nt94sI4upRh2YXrKDY7-126" value="converter-video-&#xa;para-imagem" style="sketch=0;points=[[0,0,0],[0.25,0,0],[0.5,0,0],[0.75,0,0],[1,0,0],[0,1,0],[0.25,1,0],[0.5,1,0],[0.75,1,0],[1,1,0],[0,0.25,0],[0,0.5,0],[0,0.75,0],[1,0.25,0],[1,0.5,0],[1,0.75,0]];outlineConnect=0;fontColor=default;fillColor=#E7157B;strokeColor=#ffffff;dashed=0;verticalLabelPosition=bottom;verticalAlign=top;align=center;fontSize=8;fontStyle=0;aspect=fixed;shape=mxgraph.aws4.resourceIcon;resIcon=mxgraph.aws4.sqs;labelBackgroundColor=none;horizontal=1;" vertex="1" parent="_nt94sI4upRh2YXrKDY7-130">
          <mxGeometry x="299.9985714285715" y="23.00333333333333" width="25.5" height="25.5" as="geometry" />
        </mxCell>
        <mxCell id="_nt94sI4upRh2YXrKDY7-125" value="erro-conversao-video-&#xa;para-imagem" style="sketch=0;points=[[0,0,0],[0.25,0,0],[0.5,0,0],[0.75,0,0],[1,0,0],[0,1,0],[0.25,1,0],[0.5,1,0],[0.75,1,0],[1,1,0],[0,0.25,0],[0,0.5,0],[0,0.75,0],[1,0.25,0],[1,0.5,0],[1,0.75,0]];outlineConnect=0;fontColor=default;fillColor=#E7157B;strokeColor=#ffffff;dashed=0;verticalLabelPosition=bottom;verticalAlign=top;align=center;fontSize=8;fontStyle=0;aspect=fixed;shape=mxgraph.aws4.resourceIcon;resIcon=mxgraph.aws4.sqs;labelBackgroundColor=none;horizontal=1;" vertex="1" parent="_nt94sI4upRh2YXrKDY7-130">
          <mxGeometry x="212.24857142857144" y="23.00333333333333" width="25.5" height="25.5" as="geometry" />
        </mxCell>
        <mxCell id="_nt94sI4upRh2YXrKDY7-124" value="conversao-video-para-&#xa;imagem-realizada" style="sketch=0;points=[[0,0,0],[0.25,0,0],[0.5,0,0],[0.75,0,0],[1,0,0],[0,1,0],[0.25,1,0],[0.5,1,0],[0.75,1,0],[1,1,0],[0,0.25,0],[0,0.5,0],[0,0.75,0],[1,0.25,0],[1,0.5,0],[1,0.75,0]];outlineConnect=0;fontColor=default;fillColor=#E7157B;strokeColor=#ffffff;dashed=0;verticalLabelPosition=bottom;verticalAlign=top;align=center;fontSize=8;fontStyle=0;aspect=fixed;shape=mxgraph.aws4.resourceIcon;resIcon=mxgraph.aws4.sqs;labelBackgroundColor=none;" vertex="1" parent="_nt94sI4upRh2YXrKDY7-130">
          <mxGeometry x="117.99857142857144" y="23" width="25.5" height="25.5" as="geometry" />
        </mxCell>
        <mxCell id="_nt94sI4upRh2YXrKDY7-127" value="bucket&#xa;processamento&#xa;videos" style="sketch=0;points=[[0,0,0],[0.25,0,0],[0.5,0,0],[0.75,0,0],[1,0,0],[0,1,0],[0.25,1,0],[0.5,1,0],[0.75,1,0],[1,1,0],[0,0.25,0],[0,0.5,0],[0,0.75,0],[1,0.25,0],[1,0.5,0],[1,0.75,0]];outlineConnect=0;fontColor=#232F3E;fillColor=#7AA116;strokeColor=#ffffff;dashed=0;verticalLabelPosition=bottom;verticalAlign=top;align=center;fontSize=8;fontStyle=0;aspect=fixed;shape=mxgraph.aws4.resourceIcon;resIcon=mxgraph.aws4.s3;" vertex="1" parent="_nt94sI4upRh2YXrKDY7-130">
          <mxGeometry x="30" y="23.25" width="25.25" height="25.25" as="geometry" />
        </mxCell>
        <mxCell id="_nt94sI4upRh2YXrKDY7-151" style="edgeStyle=orthogonalEdgeStyle;rounded=0;orthogonalLoop=1;jettySize=auto;html=1;entryX=0.25;entryY=0;entryDx=0;entryDy=0;sketch=1;curveFitting=1;jiggle=2;curved=1;" edge="1" parent="_nt94sI4upRh2YXrKDY7-13" source="_nt94sI4upRh2YXrKDY7-41" target="_nt94sI4upRh2YXrKDY7-122">
          <mxGeometry relative="1" as="geometry" />
        </mxCell>
        <mxCell id="_nt94sI4upRh2YXrKDY7-152" style="edgeStyle=orthogonalEdgeStyle;rounded=0;orthogonalLoop=1;jettySize=auto;html=1;entryX=0.5;entryY=0;entryDx=0;entryDy=0;sketch=1;curveFitting=1;jiggle=2;curved=1;" edge="1" parent="_nt94sI4upRh2YXrKDY7-13" source="_nt94sI4upRh2YXrKDY7-46" target="_nt94sI4upRh2YXrKDY7-122">
          <mxGeometry relative="1" as="geometry" />
        </mxCell>
        <mxCell id="_nt94sI4upRh2YXrKDY7-153" value="1" style="ellipse;whiteSpace=wrap;html=1;aspect=fixed;fontFamily=Comic Sans MS;strokeColor=none;" vertex="1" parent="_nt94sI4upRh2YXrKDY7-13">
          <mxGeometry x="440" y="704" width="20" height="20" as="geometry" />
        </mxCell>
        <mxCell id="_nt94sI4upRh2YXrKDY7-157" value="2" style="ellipse;whiteSpace=wrap;html=1;aspect=fixed;fontFamily=Comic Sans MS;strokeColor=none;" vertex="1" parent="_nt94sI4upRh2YXrKDY7-13">
          <mxGeometry x="566" y="704" width="20" height="20" as="geometry" />
        </mxCell>
        <mxCell id="_nt94sI4upRh2YXrKDY7-47" value="AutoScalling" style="aspect=fixed;sketch=0;html=1;dashed=0;whitespace=wrap;verticalLabelPosition=bottom;verticalAlign=top;fillColor=#2875E2;strokeColor=#ffffff;points=[[0.005,0.63,0],[0.1,0.2,0],[0.9,0.2,0],[0.5,0,0],[0.995,0.63,0],[0.72,0.99,0],[0.5,1,0],[0.28,0.99,0]];shape=mxgraph.kubernetes.icon2;prIcon=hpa" vertex="1" parent="_nt94sI4upRh2YXrKDY7-13">
          <mxGeometry x="550" y="510" width="50" height="48" as="geometry" />
        </mxCell>
      </root>
    </mxGraphModel>
  </diagram>
</mxfile>
